<svg height="511pt" viewBox="-49 0 511 511.998" width="511pt" xmlns="http://www.w3.org/2000/svg"><path d="m313.929688 336.195312c4.648437 2.984376 10.832031 1.632813 13.8125-3.011718 37.519531-58.46875 44.03125-136.753906 45.664062-190.550782.136719-4.507812-2.761719-8.550781-7.074219-9.867187-41.046875-12.542969-72.953125-44.5625-85.347656-85.652344-1.273437-4.222656-5.164063-7.113281-9.574219-7.113281h-128.4375c-4.410156 0-8.300781 2.890625-9.574218 7.113281-12.394532 41.089844-44.300782 73.109375-85.347657 85.652344-4.3125 1.316406-7.207031 5.359375-7.070312 9.867187 1.609375 53.09375 7.972656 130.425782 44.492187 188.710938 26.148438 41.738281 65.007813 70.027344 118.792969 86.492188.953125.292968 1.941406.4375 2.925781.4375.988282 0 1.976563-.144532 2.929688-.4375 21.378906-6.542969 40.691406-15.121094 57.410156-25.492188 4.691406-2.914062 6.136719-9.078125 3.222656-13.769531-2.910156-4.691407-9.074218-6.136719-13.769531-3.226563-14.492187 8.996094-31.230469 16.539063-49.792969 22.449219-47.464844-15.105469-81.757812-40.339844-104.769531-77.070313-32.320313-51.585937-39.277344-120.9375-41.199219-171.28125 41.5625-15.085937 74.109375-47.796874 88.984375-89.445312h113.972657c14.875 41.644531 47.421874 74.359375 88.984374 89.445312-1.949218 50.992188-9.054687 121.203126-42.25 172.933594-2.984374 4.648438-1.632812 10.835938 3.015626 13.816406zm0 0"/><path d="m351.726562 368.683594c10.484376-14.023438 19.589844-29.460938 27.234376-46.21875 30.953124-67.898438 34.925781-150.09375 34.925781-214.117188 0-5.523437-4.480469-10-10-10-48.714844 0-88.347657-39.632812-88.347657-88.347656 0-5.523438-4.476562-10-10-10h-196.695312c-5.519531 0-10 4.476562-10 10 0 10.910156-1.96875 21.566406-5.847656 31.671875-1.980469 5.152344.59375 10.9375 5.746094 12.917969 5.160156 1.980468 10.941406-.589844 12.921874-5.746094 3.570313-9.292969 5.820313-18.957031 6.726563-28.84375h177.605469c4.757812 51.769531 46.089844 93.109375 97.851562 97.882812-1.023437 141.84375-26.238281 277.285157-186.65625 321.632813-160.417968-44.34375-185.628906-179.785156-186.65625-321.628906 9.875-.90625 19.53125-3.15625 28.816406-6.726563 5.152344-1.980468 7.726563-7.765625 5.746094-12.917968-1.980468-5.15625-7.765625-7.730469-12.921875-5.75-10.105469 3.882812-20.765625 5.851562-31.675781 5.851562-5.523438 0-10 4.480469-10 10 0 64.027344 3.96875 146.222656 34.925781 214.117188 7.640625 16.761718 16.746094 32.199218 27.234375 46.222656l-59.230468 59.230468c-2.675782 2.675782-3.613282 6.628907-2.421876 10.21875 1.1875 3.589844 4.304688 6.199219 8.046876 6.746094l51.09375 7.472656 7.46875 51.09375c.546874 3.742188 3.160156 6.855469 6.75 8.042969 1.03125.34375 2.09375.507813 3.144531.507813 2.609375 0 5.167969-1.019532 7.074219-2.925782l68.207031-68.210937c16 7.476563 33.296875 13.714844 51.8125 18.675781.847656.226563 1.71875.34375 2.585937.34375.871094 0 1.742188-.117187 2.589844-.34375 18.515625-4.960937 35.8125-11.199218 51.8125-18.675781l68.207031 68.210937c1.90625 1.90625 4.464844 2.925782 7.074219 2.925782 1.050781 0 2.113281-.164063 3.144531-.507813 3.589844-1.1875 6.199219-4.300781 6.75-8.042969l7.46875-51.09375 51.09375-7.472656c3.742188-.546875 6.855469-3.15625 8.046875-6.746094 1.1875-3.589843.253906-7.542968-2.421875-10.21875zm-267.199218 112.160156-5.667969-38.753906c-.636719-4.375-4.074219-7.808594-8.445313-8.449219l-38.757812-5.667969 43.734375-43.734375c6.933594 7.757813 14.347656 15 22.246094 21.683594 11.078125 9.375 23.273437 17.816406 36.5 25.308594zm259.445312-47.203125c-4.375.640625-7.808594 4.074219-8.449218 8.449219l-5.664063 38.753906-49.613281-49.613281c13.230468-7.492188 25.421875-15.929688 36.5-25.308594 7.898437-6.683594 15.3125-13.925781 22.246094-21.683594l43.738281 43.734375zm0 0"/><path d="m80.042969 89.542969c2.558593 0 5.117187-.976563 7.070312-2.929688l.003907-.003906c3.90625-3.90625 3.902343-10.234375-.003907-14.140625-3.902343-3.90625-10.238281-3.902344-14.144531.003906-3.902344 3.902344-3.902344 10.234375 0 14.140625 1.953125 1.953125 4.511719 2.929688 7.074219 2.929688zm0 0"/><path d="m286.925781 351.953125c-3.90625 3.90625-3.90625 10.238281 0 14.140625 1.953125 1.953125 4.511719 2.929688 7.070313 2.929688s5.117187-.976563 7.070312-2.929688l.007813-.003906c3.902343-3.90625 3.902343-10.234375-.003907-14.140625s-10.238281-3.902344-14.144531.003906zm0 0"/><path d="m244.261719 151.867188c1.875-1.875 2.929687-4.417969 2.929687-7.070313v-15.660156c0-2.652344-1.054687-5.195313-2.929687-7.070313l-30-30c-1.875-1.875-4.417969-2.929687-7.070313-2.929687h-30c-5.519531 0-10 4.476562-10 10v142.605469c-18.117187 12.664062-30 33.660156-30 57.394531 0 38.597656 31.402344 70 70 70s70-31.402344 70-70c0-23.730469-11.882812-44.730469-30-57.394531v-36.941407c0-2.652343-1.054687-5.199219-2.929687-7.074219l-17.070313-17.070312v-11.71875zm12.929687 147.269531c0 27.570312-22.429687 50-50 50-27.570312 0-50-22.429688-50-50 0-27.570313 22.429688-50 50-50 27.570313 0 50 22.429687 50 50zm-47.070312-107.269531 17.070312 17.074218v23.121094c-6.339844-1.894531-13.050781-2.925781-20-2.925781-6.949218 0-13.65625 1.03125-20 2.925781v-122.925781h15.859375l24.140625 24.144531v7.375l-17.070312 17.070312c-1.875 1.875-2.929688 4.417969-2.929688 7.070313v20c0 2.652344 1.054688 5.195313 2.929688 7.070313zm0 0"/><path d="m207.1875 309.136719c-5.519531 0-10 4.476562-10 10 0 5.523437 4.480469 10 10 10h.007812c5.523438 0 9.996094-4.476563 9.996094-10 0-5.523438-4.480468-10-10.003906-10zm0 0"/></svg>