<svg height="512pt" viewBox="-96 0 512 512" width="512pt" xmlns="http://www.w3.org/2000/svg"><path d="m170 402c0 5.523438-4.476562 10-10 10s-10-4.476562-10-10 4.476562-10 10-10 10 4.476562 10 10zm0 0"/><path d="m234 178c4.761719 3.570312 11.613281 2.222656 14.636719-2.960938l70-120c2.027343-3.472656 1.777343-7.820312-.636719-11.039062l-30-40c-.007812-.011719-.019531-.023438-.03125-.035156-1.878906-2.484375-4.851562-3.964844-7.96875-3.964844h-240c-3.027344 0-6.035156 1.410156-7.96875 3.964844-.011719.011718-.019531.023437-.03125.035156l-30 40c-2.414062 3.21875-2.664062 7.566406-.636719 11.039062l70 120c3.007813 5.160157 9.851563 6.550782 14.636719 2.960938l24.457031-18.34375 9.367188 31.226562-29.753907 249.933594c-.363281 3.046875.691407 6.085938 2.859376 8.253906l60 60c1.953124 1.953126 4.511718 2.929688 7.070312 2.929688s5.117188-.976562 7.070312-2.929688l60-60c2.167969-2.167968 3.222657-5.207031 2.859376-8.253906l-29.753907-249.933594 9.363281-31.226562zm3.019531-22.734375-60.902343-45.679687 102.199218-85.164063 19.703125 26.269531zm15.359375-135.265625-92.378906 76.984375-92.378906-76.984375zm-169.398437 135.265625-61-104.574219 19.703125-26.269531 102.199218 85.164063zm77.019531 332.59375-49.496094-49.496094 28.375-238.363281h42.242188l28.375 238.363281zm22.558594-307.859375h-45.117188l-9.9375-33.128906 32.496094-24.371094 32.496094 24.371094zm0 0"/><path d="m160 286c-5.523438 0-10 4.476562-10 10v66c0 5.523438 4.476562 10 10 10s10-4.476562 10-10v-66c0-5.523438-4.476562-10-10-10zm0 0"/></svg>