<?xml version="1.0" encoding="UTF-8"?><!DOCTYPE svg PUBLIC "-//W3C//DTD SVG 1.1//EN" "http://www.w3.org/Graphics/SVG/1.1/DTD/svg11.dtd"><svg xmlns="http://www.w3.org/2000/svg"><symbol id="icon-arr-left" viewBox="0 0 493.353 493.352">
    <path d="M490.786 212.678c-1.718-1.713-3.901-2.568-6.57-2.568H127.907v-63.953c0-3.809-1.812-6.567-5.424-8.28-3.621-1.521-6.952-.949-9.995 1.713L2.853 240.658C.95 242.564 0 244.848 0 247.511c0 2.474.95 4.665 2.853 6.567l109.636 99.928c3.046 2.474 6.377 2.956 9.995 1.427 3.612-1.52 5.424-4.278 5.424-8.278v-63.953h356.315c2.663 0 4.854-.859 6.564-2.567 1.711-1.711 2.566-3.897 2.566-6.563v-54.821c.003-2.665-.856-4.858-2.567-6.573z"/>
</symbol><symbol id="icon-arr-right" viewBox="0 0 493.356 493.356">
    <path d="M490.498 239.278l-109.632-99.929c-3.046-2.474-6.376-2.95-9.993-1.427-3.613 1.525-5.427 4.283-5.427 8.282v63.954H9.136c-2.666 0-4.856.855-6.567 2.568C.859 214.438 0 216.628 0 219.292v54.816c0 2.663.855 4.853 2.568 6.563 1.715 1.712 3.905 2.567 6.567 2.567h356.313v63.953c0 3.812 1.817 6.57 5.428 8.278 3.62 1.529 6.95.951 9.996-1.708l109.632-101.077c1.903-1.902 2.852-4.182 2.852-6.849 0-2.468-.955-4.654-2.858-6.557z"/>
</symbol><symbol id="icon-building" viewBox="0 0 512 512">
    <path d="M366.933 477.867H128a8.536 8.536 0 0 0-8.533 8.533v17.067c0 4.71 3.823 8.533 8.533 8.533s8.533-3.823 8.533-8.533v-8.533h230.4c4.71 0 8.533-3.823 8.533-8.533s-3.822-8.534-8.533-8.534z"/>
    <path d="M187.733 213.333a8.536 8.536 0 0 0 8.533 8.533H230.4a8.536 8.536 0 0 0 8.533-8.533v-51.2a8.536 8.536 0 0 0-8.533-8.533h-34.133a8.536 8.536 0 0 0-8.533 8.533v51.2zm17.067-42.666h17.067V204.8H204.8v-34.133z"/>
    <path d="M110.933 102.4H8.533A8.536 8.536 0 0 0 0 110.933V281.6c0 4.71 3.823 8.533 8.533 8.533s8.533-3.823 8.533-8.533V119.467h93.867c4.71 0 8.533-3.823 8.533-8.533s-3.822-8.534-8.533-8.534z"/>
    <path d="M409.6 418.133a8.536 8.536 0 0 0 8.533 8.533h34.133a8.536 8.536 0 0 0 8.533-8.533v-51.2a8.536 8.536 0 0 0-8.533-8.533h-34.133a8.536 8.536 0 0 0-8.533 8.533v51.2zm17.067-42.666h17.067V409.6h-17.067v-34.133z"/>
    <path d="M42.667 307.2C.486 307.2 0 417.024 0 418.133c0 20.608 14.686 37.837 34.133 41.805v43.529A8.536 8.536 0 0 0 42.666 512a8.536 8.536 0 0 0 8.533-8.533v-43.529c19.447-3.968 34.133-21.197 34.133-41.805.001-1.109-.485-110.933-42.665-110.933zm0 136.533c-14.114 0-25.6-11.486-25.6-25.6 0-42.513 11.418-93.867 25.6-93.867 14.182 0 25.6 51.354 25.6 93.867 0 14.114-11.486 25.6-25.6 25.6z"/>
    <path d="M93.867 256H59.733a8.536 8.536 0 0 0-8.533 8.533V281.6c0 4.71 3.823 8.533 8.533 8.533s8.533-3.823 8.533-8.533v-8.533h17.067v42.667a8.536 8.536 0 0 0 8.533 8.533 8.536 8.536 0 0 0 8.533-8.533v-51.2A8.535 8.535 0 0 0 93.867 256z"/>
    <path d="M418.133 221.867h34.133a8.536 8.536 0 0 0 8.533-8.533v-51.2a8.536 8.536 0 0 0-8.533-8.533h-34.133a8.536 8.536 0 0 0-8.533 8.533v51.2a8.536 8.536 0 0 0 8.533 8.533zm8.534-51.2h17.067V204.8h-17.067v-34.133z"/>
    <path d="M93.867 153.6H59.733a8.536 8.536 0 0 0-8.533 8.533v51.2a8.536 8.536 0 0 0 8.533 8.533h34.133a8.536 8.536 0 0 0 8.533-8.533v-51.2c.001-4.71-3.822-8.533-8.532-8.533zm-8.534 51.2H68.267v-34.133h17.067V204.8z"/>
    <path d="M273.067 213.333a8.536 8.536 0 0 0 8.533 8.533h34.133a8.536 8.536 0 0 0 8.533-8.533v-51.2a8.536 8.536 0 0 0-8.533-8.533H281.6a8.536 8.536 0 0 0-8.533 8.533v51.2zm17.066-42.666H307.2V204.8h-17.067v-34.133z"/>
    <path d="M503.467 102.4h-102.4c-4.71 0-8.533 3.823-8.533 8.533s3.823 8.533 8.533 8.533h93.867V462.37c-2.679-.956-5.521-1.57-8.533-1.57-1.476 0-2.944.128-4.386.384-5.888-10.607-17.092-17.451-29.747-17.451-12.655 0-23.859 6.844-29.747 17.451a25.094 25.094 0 0 0-4.386-.384c-14.114 0-25.6 11.486-25.6 25.6s11.486 25.6 25.6 25.6H486.4c14.114 0 25.6-11.486 25.6-25.6V110.933a8.536 8.536 0 0 0-8.533-8.533zM486.4 494.933h-68.267c-4.702 0-8.533-3.831-8.533-8.533s3.831-8.533 8.533-8.533c1.638 0 3.191.469 4.625 1.391a8.558 8.558 0 0 0 7.834.734 8.51 8.51 0 0 0 5.103-5.982c1.801-7.774 8.619-13.21 16.572-13.21 7.953 0 14.771 5.436 16.572 13.21a8.51 8.51 0 0 0 5.103 5.982 8.56 8.56 0 0 0 7.834-.734c5.555-3.584 13.158.802 13.158 7.142-.001 4.702-3.832 8.533-8.534 8.533z"/>
    <path d="M281.6 119.467h34.133a8.536 8.536 0 0 0 8.533-8.533v-51.2a8.536 8.536 0 0 0-8.533-8.533H281.6a8.536 8.536 0 0 0-8.533 8.533v51.2a8.536 8.536 0 0 0 8.533 8.533zm8.533-51.2H307.2V102.4h-17.067V68.267z"/>
    <path d="M273.067 315.733a8.536 8.536 0 0 0 8.533 8.533h34.133a8.536 8.536 0 0 0 8.533-8.533v-51.2a8.536 8.536 0 0 0-8.533-8.533H281.6a8.536 8.536 0 0 0-8.533 8.533v51.2zm17.066-42.666H307.2V307.2h-17.067v-34.133z"/>
    <path d="M196.267 119.467H230.4a8.536 8.536 0 0 0 8.533-8.533v-51.2a8.536 8.536 0 0 0-8.533-8.533h-34.133a8.536 8.536 0 0 0-8.533 8.533v51.2c-.001 4.71 3.822 8.533 8.533 8.533zm8.533-51.2h17.067V102.4H204.8V68.267z"/>
    <path d="M249.941 412.075c-1.536 1.621-2.475 3.84-2.475 6.059 0 2.219.939 4.437 2.475 6.059 1.621 1.536 3.84 2.475 6.059 2.475 2.219 0 4.437-.939 6.059-2.475 1.536-1.621 2.475-3.84 2.475-6.059 0-2.219-.939-4.437-2.475-6.059-3.243-3.158-8.875-3.158-12.118 0z"/>
    <path d="M187.733 315.733a8.536 8.536 0 0 0 8.533 8.533H230.4a8.536 8.536 0 0 0 8.533-8.533v-51.2A8.536 8.536 0 0 0 230.4 256h-34.133a8.536 8.536 0 0 0-8.533 8.533v51.2zm17.067-42.666h17.067V307.2H204.8v-34.133z"/>
    <path d="M170.667 366.933a8.536 8.536 0 0 0 8.533 8.533h25.6v76.8a8.536 8.536 0 0 0 8.533 8.533 8.536 8.536 0 0 0 8.533-8.533v-76.8h68.267v76.8c0 4.71 3.823 8.533 8.533 8.533s8.533-3.823 8.533-8.533v-76.8h25.6c4.71 0 8.533-3.823 8.533-8.533s-3.823-8.533-8.533-8.533H179.2a8.536 8.536 0 0 0-8.533 8.533z"/>
    <path d="M409.6 315.733a8.536 8.536 0 0 0 8.533 8.533h34.133a8.536 8.536 0 0 0 8.533-8.533v-51.2a8.536 8.536 0 0 0-8.533-8.533h-34.133a8.536 8.536 0 0 0-8.533 8.533v51.2zm17.067-42.666h17.067V307.2h-17.067v-34.133z"/>
    <path d="M366.933 0H145.067a8.536 8.536 0 0 0-8.533 8.533v443.733a8.536 8.536 0 0 0 8.533 8.533 8.536 8.536 0 0 0 8.533-8.533v-435.2h204.8v435.2c0 4.71 3.823 8.533 8.533 8.533s8.533-3.823 8.533-8.533V8.533c.001-4.71-3.822-8.533-8.533-8.533z"/>
</symbol><symbol id="icon-facebook" viewBox="0 0 512 512">
    <path d="M75 512h167V330h-60v-60h60v-75c0-41.355 33.645-75 75-75h75v60h-60c-16.543 0-30 13.457-30 30v60h87.293l-10 60H302v182h135c41.355 0 75-33.645 75-75V75c0-41.355-33.645-75-75-75H75C33.645 0 0 33.645 0 75v362c0 41.355 33.645 75 75 75zM30 75c0-24.813 20.188-45 45-45h362c24.813 0 45 20.188 45 45v362c0 24.813-20.188 45-45 45H332V360h72.707l20-120H332v-30h90V90H317c-57.898 0-105 47.102-105 105v45h-60v120h60v122H75c-24.813 0-45-20.188-45-45zm0 0"/>
</symbol><symbol id="icon-mail" viewBox="0 0 483.3 483.3">
    <path d="M424.3 57.75H59.1c-32.6 0-59.1 26.5-59.1 59.1v249.6c0 32.6 26.5 59.1 59.1 59.1h365.1c32.6 0 59.1-26.5 59.1-59.1v-249.5c.1-32.6-26.4-59.2-59-59.2zm32.1 308.7c0 17.7-14.4 32.1-32.1 32.1H59.1c-17.7 0-32.1-14.4-32.1-32.1v-249.5c0-17.7 14.4-32.1 32.1-32.1h365.1c17.7 0 32.1 14.4 32.1 32.1v249.5h.1z"/>
    <path d="M304.8 238.55l118.2-106c5.5-5 6-13.5 1-19.1-5-5.5-13.5-6-19.1-1l-163 146.3-31.8-28.4c-.1-.1-.2-.2-.2-.3-.7-.7-1.4-1.3-2.2-1.9L78.3 112.35c-5.6-5-14.1-4.5-19.1 1.1-5 5.6-4.5 14.1 1.1 19.1l119.6 106.9-119.1 111.5c-5.4 5.1-5.7 13.6-.6 19.1 2.7 2.8 6.3 4.3 9.9 4.3 3.3 0 6.6-1.2 9.2-3.6l120.9-113.1 32.8 29.3c2.6 2.3 5.8 3.4 9 3.4s6.5-1.2 9-3.5l33.7-30.2 120.2 114.2c2.6 2.5 6 3.7 9.3 3.7 3.6 0 7.1-1.4 9.8-4.2 5.1-5.4 4.9-14-.5-19.1l-118.7-112.7z"/>
</symbol><symbol id="icon-recommended" viewBox="0 0 512 512">
    <path d="M392.327 226.071c0-16.209-13.186-29.394-29.395-29.394H308.91c13.125-14.753 21.703-31.552 23.36-46.623 1.012-9.205-1.832-18.342-7.805-25.069-5.459-6.149-12.924-9.576-21.02-9.651l-.281-.001c-7.831 0-15.181 3.016-20.728 8.512-5.548 5.497-8.618 12.82-8.654 20.635-.285 1.711-3.295 7.61-10.66 14.614-6.03 5.736-16.446 13.621-31.825 18.614-6.03 1.958-11.541 5.563-16.379 10.715a105.986 105.986 0 0 1-11.048 10.18 16.454 16.454 0 0 0-7.728-1.924h-51.307c-9.136 0-16.568 7.432-16.568 16.568v136.818c0 9.136 7.432 16.568 16.568 16.568h51.307c6.228 0 11.659-3.458 14.489-8.551h130.923c13.851 0 25.119-11.268 25.119-25.119 0-4.657-1.273-9.021-3.491-12.765 7.217-4.418 12.042-12.376 12.042-21.44 0-4.657-1.273-9.021-3.491-12.765 7.217-4.418 12.042-12.376 12.042-21.44a24.982 24.982 0 0 0-4.371-14.146c7.793-5.293 12.923-14.227 12.923-24.336zm-29.395 13.361h-4.276a8.017 8.017 0 0 0 0 16.034c5.01 0 9.086 4.076 9.086 9.086s-4.076 9.086-9.086 9.086h-8.551a8.017 8.017 0 0 0 0 16.034c5.01 0 9.086 4.076 9.086 9.086 0 5.01-4.076 9.086-9.086 9.086h-8.551a8.017 8.017 0 0 0 0 16.034c5.01 0 9.086 4.076 9.086 9.086 0 5.01-4.076 9.086-9.086 9.086H212.71v-77.495a8.017 8.017 0 0 0-16.034 0v85.511a.534.534 0 0 1-.534.534h-51.307a.534.534 0 0 1-.534-.534V213.244c0-.295.239-.534.534-.534h51.307c.295 0 .534.239.534.534v17.103a8.017 8.017 0 0 0 16.034 0v-17.103c0-.389-.032-.77-.059-1.152a121.724 121.724 0 0 0 13.954-12.695c2.967-3.161 6.211-5.327 9.642-6.44 18.87-6.126 31.569-15.99 38.898-23.186 9.186-9.019 14.669-18.421 14.669-25.152 0-3.556 1.387-6.889 3.906-9.385 2.55-2.527 5.927-3.862 9.576-3.867 4.494.042 7.47 2.341 9.177 4.263 2.926 3.295 4.366 8.033 3.857 12.672-1.751 15.929-14.49 35.619-32.454 50.161a8.018 8.018 0 0 0 5.044 14.247h74.01c7.368 0 13.361 5.993 13.361 13.361s-5.992 13.361-13.359 13.361z"/>
    <path d="M170.489 316.306c-4.427 0-8.059 3.632-8.059 8.059s3.632 8.059 8.059 8.059 8.059-3.632 8.059-8.059c.001-4.426-3.631-8.059-8.059-8.059z"/>
    <path d="M497.71 256l13.772-36.443a8.014 8.014 0 0 0-1.243-7.847l-24.359-30.404 1.836-38.915a8.017 8.017 0 0 0-3.606-7.078l-32.562-21.389-10.278-37.578a8.016 8.016 0 0 0-5.617-5.617l-37.578-10.278-21.389-32.561a8.027 8.027 0 0 0-7.078-3.606l-38.915 1.836-30.404-24.359a8.018 8.018 0 0 0-7.847-1.243L255.999 14.29 219.558.519a8.012 8.012 0 0 0-7.847 1.243l-30.404 24.359-38.915-1.836a8.001 8.001 0 0 0-7.078 3.606l-21.388 32.562-37.578 10.278a8.016 8.016 0 0 0-5.617 5.617l-10.278 37.578-32.562 21.388a8.016 8.016 0 0 0-3.606 7.078l1.836 38.915-24.359 30.404a8.018 8.018 0 0 0-1.243 7.847L14.29 256 .518 292.442a8.014 8.014 0 0 0 1.243 7.847l24.359 30.404-1.836 38.915a8.017 8.017 0 0 0 3.606 7.078l32.562 21.389 10.278 37.578a8.016 8.016 0 0 0 5.617 5.617l37.578 10.278 21.388 32.562a8.041 8.041 0 0 0 7.078 3.606l38.915-1.836 30.404 24.359a8.013 8.013 0 0 0 7.847 1.243L256 497.71l36.443 13.772a8.02 8.02 0 0 0 7.846-1.243l30.404-24.359 38.915 1.836a8.025 8.025 0 0 0 7.078-3.606l21.389-32.562 37.578-10.278a8.016 8.016 0 0 0 5.617-5.617l10.278-37.578 32.562-21.389a8.016 8.016 0 0 0 3.606-7.078l-1.836-38.915 24.359-30.404a8.018 8.018 0 0 0 1.243-7.847L497.71 256zm-16.069 2.834l13.226 34.999-23.394 29.199a8.014 8.014 0 0 0-1.752 5.39l1.764 37.373-31.271 20.541a8.017 8.017 0 0 0-3.332 4.586l-9.871 36.089-36.089 9.871a8.022 8.022 0 0 0-4.586 3.332l-20.541 31.271-37.373-1.764a8.023 8.023 0 0 0-5.39 1.752l-29.199 23.394-34.999-13.226a8.018 8.018 0 0 0-5.668 0l-34.999 13.226-29.199-23.394a8.03 8.03 0 0 0-5.39-1.752l-37.373 1.764-20.541-31.271a8.017 8.017 0 0 0-4.586-3.332l-36.089-9.871-9.871-36.089a8.022 8.022 0 0 0-3.332-4.586l-31.271-20.541 1.764-37.373a8.012 8.012 0 0 0-1.752-5.39l-23.394-29.199 13.227-34.999a8.019 8.019 0 0 0 0-5.668l-13.227-34.999 23.394-29.199a8.014 8.014 0 0 0 1.752-5.39l-1.764-37.373 31.271-20.541a8.017 8.017 0 0 0 3.332-4.586l9.871-36.089 36.089-9.871a8.022 8.022 0 0 0 4.586-3.332l20.541-31.271 37.373 1.764a8.022 8.022 0 0 0 5.39-1.752l29.199-23.394 34.999 13.227c1.827.69 3.842.69 5.668 0l34.999-13.227 29.199 23.394a8.01 8.01 0 0 0 5.39 1.752l37.373-1.764 20.541 31.271a8.017 8.017 0 0 0 4.586 3.332l36.089 9.871 9.871 36.089a8.022 8.022 0 0 0 3.332 4.586l31.271 20.541-1.764 37.373a8.012 8.012 0 0 0 1.752 5.39l23.394 29.199-13.227 34.999a8.024 8.024 0 0 0 .001 5.668z"/>
    <path d="M406.634 117.574a209.24 209.24 0 0 0-12.573-12.573 8.017 8.017 0 0 0-11.327.484 8.016 8.016 0 0 0 .484 11.327c2.003 1.84 3.997 3.75 5.925 5.678a194.67 194.67 0 0 1 5.679 5.926 7.996 7.996 0 0 0 5.908 2.595c1.937 0 3.88-.698 5.419-2.111a8.015 8.015 0 0 0 .485-11.326z"/>
    <path d="M365.592 83.125c-38.66-24.63-85.206-35.576-131.059-30.829-46.525 4.82-90.395 25.722-123.531 58.857-36.467 36.467-57.699 84.911-59.785 136.408-2.073 51.194 14.883 100.898 47.746 139.954a7.998 7.998 0 0 0 6.139 2.855 8.017 8.017 0 0 0 6.13-13.177c-30.281-35.989-45.905-81.795-43.995-128.982 1.922-47.462 21.49-92.11 55.101-125.72 30.54-30.541 70.972-49.806 113.846-54.247 42.275-4.38 85.171 5.709 120.792 28.403a8.016 8.016 0 0 0 11.068-2.453 8.017 8.017 0 0 0-2.452-11.069z"/>
    <path d="M428.511 146.043a8.017 8.017 0 1 0-13.522 8.614c22.694 35.622 32.781 78.52 28.403 120.792-4.441 42.874-23.706 83.305-54.246 113.847-33.611 33.61-78.259 53.179-125.72 55.101-47.179 1.918-92.994-13.713-128.982-43.993a8.016 8.016 0 0 0-11.295.973 8.016 8.016 0 0 0 .973 11.295c36.921 31.065 83.351 47.917 131.566 47.916 2.789 0 5.589-.057 8.389-.17 51.497-2.085 99.94-23.317 136.408-59.784 33.136-33.136 54.039-77.007 58.857-123.532 4.748-45.856-6.201-92.4-30.831-131.059z"/>
</symbol><symbol id="icon-shield" viewBox="-49 0 511 511.998">
    <path d="M313.93 336.195c4.648 2.985 10.832 1.633 13.812-3.011 37.52-58.47 44.031-136.754 45.664-190.551a10 10 0 0 0-7.074-9.867c-41.047-12.543-72.953-44.563-85.348-85.653A10.001 10.001 0 0 0 271.41 40H142.973c-4.41 0-8.301 2.89-9.575 7.113-12.394 41.09-44.3 73.11-85.347 85.653a9.997 9.997 0 0 0-7.07 9.867c1.609 53.094 7.972 130.426 44.492 188.71 26.148 41.739 65.007 70.028 118.793 86.493a9.965 9.965 0 0 0 2.925.437c.989 0 1.977-.144 2.93-.437 21.379-6.543 40.692-15.121 57.41-25.492 4.692-2.914 6.137-9.078 3.223-13.77-2.91-4.691-9.074-6.137-13.77-3.226-14.492 8.996-31.23 16.539-49.793 22.449-47.464-15.106-81.757-40.34-104.77-77.07-32.32-51.586-39.276-120.938-41.198-171.282 41.562-15.086 74.109-47.797 88.984-89.445H264.18c14.875 41.645 47.422 74.36 88.984 89.445-1.95 50.993-9.055 121.203-42.25 172.934-2.984 4.648-1.633 10.836 3.016 13.816zm0 0"/>
    <path d="M351.727 368.684c10.484-14.024 19.59-29.461 27.234-46.22 30.953-67.898 34.926-150.093 34.926-214.116 0-5.524-4.48-10-10-10-48.715 0-88.348-39.633-88.348-88.348 0-5.523-4.477-10-10-10H108.844c-5.52 0-10 4.477-10 10 0 10.91-1.969 21.566-5.848 31.672-1.98 5.152.594 10.937 5.746 12.918 5.16 1.98 10.942-.59 12.922-5.746A107.647 107.647 0 0 0 118.391 20h177.605c4.758 51.77 46.09 93.11 97.852 97.883-1.024 141.844-26.239 277.285-186.657 321.633C46.773 395.172 21.562 259.73 20.535 117.886a107.489 107.489 0 0 0 28.817-6.726c5.152-1.98 7.726-7.765 5.746-12.918-1.98-5.156-7.766-7.73-12.922-5.75C32.07 96.375 21.41 98.344 10.5 98.344c-5.523 0-10 4.48-10 10 0 64.027 3.969 146.222 34.926 214.117 7.64 16.762 16.746 32.2 27.234 46.223l-59.23 59.23a9.996 9.996 0 0 0 5.625 16.965l51.093 7.473 7.47 51.093a9.995 9.995 0 0 0 9.894 8.551c2.61 0 5.168-1.02 7.074-2.926l68.207-68.21c16 7.476 33.297 13.714 51.812 18.675.848.227 1.72.344 2.586.344.871 0 1.743-.117 2.59-.344 18.516-4.96 35.813-11.2 51.813-18.676L329.8 509.07a10.002 10.002 0 0 0 10.219 2.418c3.59-1.187 6.199-4.3 6.75-8.043l7.468-51.093 51.094-7.473a10 10 0 0 0 8.047-6.746 10.005 10.005 0 0 0-2.422-10.219zm-267.2 112.16L78.86 442.09a9.998 9.998 0 0 0-8.445-8.45l-38.758-5.667 43.735-43.735c6.933 7.758 14.347 15 22.246 21.684 11.078 9.375 23.273 17.816 36.5 25.308zm259.446-47.203a10.002 10.002 0 0 0-8.45 8.449l-5.664 38.754-49.613-49.614c13.23-7.492 25.422-15.93 36.5-25.308a223.246 223.246 0 0 0 22.246-21.684l43.738 43.735zm0 0"/>
    <path d="M80.043 89.543a9.968 9.968 0 0 0 7.07-2.93l.004-.004c3.906-3.906 3.903-10.234-.004-14.14-3.902-3.906-10.238-3.903-14.144.004-3.903 3.902-3.903 10.234 0 14.14a9.97 9.97 0 0 0 7.074 2.93zm0 0"/>
    <path d="M286.926 351.953c-3.906 3.906-3.906 10.238 0 14.14 1.953 1.954 4.511 2.93 7.07 2.93s5.117-.976 7.07-2.93l.008-.003c3.903-3.906 3.903-10.235-.004-14.14s-10.238-3.903-14.144.003zm0 0"/>
    <path d="M244.262 151.867a10 10 0 0 0 2.93-7.07v-15.66a10 10 0 0 0-2.93-7.07l-30-30a10 10 0 0 0-7.07-2.93h-30c-5.52 0-10 4.476-10 10v142.605c-18.118 12.664-30 33.66-30 57.395 0 38.597 31.402 70 70 70s70-31.403 70-70c0-23.73-11.883-44.73-30-57.395v-36.941c0-2.653-1.055-5.2-2.93-7.074l-17.07-17.07v-11.72zm12.93 147.27c0 27.57-22.43 50-50 50s-50-22.43-50-50 22.43-50 50-50 50 22.43 50 50zm-47.07-107.27l17.07 17.074v23.121a69.742 69.742 0 0 0-20-2.925 69.762 69.762 0 0 0-20 2.925V109.137h15.859l24.14 24.144v7.375l-17.07 17.07a10 10 0 0 0-2.93 7.07v20a10 10 0 0 0 2.93 7.071zm0 0"/>
    <path d="M207.188 309.137c-5.52 0-10 4.476-10 10 0 5.523 4.48 10 10 10h.007c5.524 0 9.996-4.477 9.996-10 0-5.524-4.48-10-10.004-10zm0 0"/>
</symbol><symbol id="icon-tel" viewBox="0 0 482.6 482.6">
    <path d="M98.339 320.8c47.6 56.9 104.9 101.7 170.3 133.4 24.9 11.8 58.2 25.8 95.3 28.2 2.3.1 4.5.2 6.8.2 24.9 0 44.9-8.6 61.2-26.3.1-.1.3-.3.4-.5 5.8-7 12.4-13.3 19.3-20 4.7-4.5 9.5-9.2 14.1-14 21.3-22.2 21.3-50.4-.2-71.9l-60.1-60.1c-10.2-10.6-22.4-16.2-35.2-16.2-12.8 0-25.1 5.6-35.6 16.1l-35.8 35.8c-3.3-1.9-6.7-3.6-9.9-5.2-4-2-7.7-3.9-11-6-32.6-20.7-62.2-47.7-90.5-82.4-14.3-18.1-23.9-33.3-30.6-48.8 9.4-8.5 18.2-17.4 26.7-26.1 3-3.1 6.1-6.2 9.2-9.3 10.8-10.8 16.6-23.3 16.6-36s-5.7-25.2-16.6-36l-29.8-29.8c-3.5-3.5-6.8-6.9-10.2-10.4-6.6-6.8-13.5-13.8-20.3-20.1-10.3-10.1-22.4-15.4-35.2-15.4-12.7 0-24.9 5.3-35.6 15.5l-37.4 37.4c-13.6 13.6-21.3 30.1-22.9 49.2-1.9 23.9 2.5 49.3 13.9 80 17.5 47.5 43.9 91.6 83.1 138.7zm-72.6-216.6c1.2-13.3 6.3-24.4 15.9-34l37.2-37.2c5.8-5.6 12.2-8.5 18.4-8.5 6.1 0 12.3 2.9 18 8.7 6.7 6.2 13 12.7 19.8 19.6 3.4 3.5 6.9 7 10.4 10.6l29.8 29.8c6.2 6.2 9.4 12.5 9.4 18.7s-3.2 12.5-9.4 18.7c-3.1 3.1-6.2 6.3-9.3 9.4-9.3 9.4-18 18.3-27.6 26.8l-.5.5c-8.3 8.3-7 16.2-5 22.2.1.3.2.5.3.8 7.7 18.5 18.4 36.1 35.1 57.1 30 37 61.6 65.7 96.4 87.8 4.3 2.8 8.9 5 13.2 7.2 4 2 7.7 3.9 11 6 .4.2.7.4 1.1.6 3.3 1.7 6.5 2.5 9.7 2.5 8 0 13.2-5.1 14.9-6.8l37.4-37.4c5.8-5.8 12.1-8.9 18.3-8.9 7.6 0 13.8 4.7 17.7 8.9l60.3 60.2c12 12 11.9 25-.3 37.7-4.2 4.5-8.6 8.8-13.3 13.3-7 6.8-14.3 13.8-20.9 21.7-11.5 12.4-25.2 18.2-42.9 18.2-1.7 0-3.5-.1-5.2-.2-32.8-2.1-63.3-14.9-86.2-25.8-62.2-30.1-116.8-72.8-162.1-127-37.3-44.9-62.4-86.7-79-131.5-10.3-27.5-14.2-49.6-12.6-69.7z"/>
</symbol><symbol id="icon-tie" viewBox="-96 0 512 512">
    <path d="M170 402c0 5.523-4.477 10-10 10s-10-4.477-10-10 4.477-10 10-10 10 4.477 10 10zm0 0"/>
    <path d="M234 178c4.762 3.57 11.613 2.223 14.637-2.96l70-120A9.995 9.995 0 0 0 318 44L288 4a.253.253 0 0 0-.031-.035A10.034 10.034 0 0 0 280 0H40c-3.027 0-6.035 1.41-7.969 3.965L32 4 2 44a9.995 9.995 0 0 0-.637 11.04l70 120c3.008 5.16 9.852 6.55 14.637 2.96l24.457-18.344 9.367 31.227L90.07 440.816a9.995 9.995 0 0 0 2.86 8.254l60 60c1.953 1.953 4.511 2.93 7.07 2.93s5.117-.977 7.07-2.93l60-60a9.995 9.995 0 0 0 2.86-8.254l-29.754-249.933 9.363-31.227zm3.02-22.734l-60.903-45.68 102.2-85.164 19.703 26.27zM252.379 20L160 96.984 67.621 20zM82.98 155.266l-61-104.575 19.704-26.27 102.199 85.165zM160 487.859l-49.496-49.496L138.879 200h42.242l28.375 238.363zM182.559 180H137.44l-9.937-33.129L160 122.5l32.496 24.371zm0 0"/>
    <path d="M160 286c-5.523 0-10 4.477-10 10v66c0 5.523 4.477 10 10 10s10-4.477 10-10v-66c0-5.523-4.477-10-10-10zm0 0"/>
</symbol><symbol id="icon-value" viewBox="0 0 512 512">
    <title>
        value customers users viewer
    </title>
    <path d="M435.1 298.2l-2.372 1.28c-9.582-11.628-26.183-16.134-38.831-9.724-.045.022-.09.046-.134.069l-5.6 3.015a42.527 42.527 0 0 0-48.7-4.4l-30.155 16.4h-40.126a57.961 57.961 0 0 1-25.09-5.749l-5.52-2.67a94.693 94.693 0 0 0-98.552 9.625c-.131.1-.259.2-.381.313l-13.327 11.864a46.226 46.226 0 0 1-17.443 9.723L101.3 303.1a6 6 0 0 0-5.739-4.25H31.108a6 6 0 0 0-5.956 6.726l21.484 176.16a6 6 0 0 0 5.956 5.274h96.674a6 6 0 0 0 5.739-7.75l-12.7-41.674 39.554-25a23.8 23.8 0 0 1 17.365-2.247c.124.031.249.059.375.081l80.459 14.816a104.117 104.117 0 0 0 64.337-9.084 5.918 5.918 0 0 0 .734-.43l139.164-95.552a6 6 0 0 0 1.744-8.041A38.2 38.2 0 0 0 435.1 298.2zm-35.717 2.228c7.315-3.663 16.524-.66 22.406 4.953l-52.772 28.47-3.1 1.633a45.752 45.752 0 0 0-7.228-13.131zm-54.113-1.485c.047-.027.1-.053.142-.081a30.516 30.516 0 0 1 31.037.292L349.618 313.6a45.592 45.592 0 0 0-17.138-7.713zM57.9 475.01L37.885 310.85h53.229l50.05 164.16zm280.784-69.431a92.038 92.038 0 0 1-56.479 7.848l-80.261-14.78a35.777 35.777 0 0 0-26.085 3.535 4.925 4.925 0 0 0-.277.165l-36.915 23.337-26.3-86.251a58.265 58.265 0 0 0 21.917-12.257l13.139-11.7a82.736 82.736 0 0 1 85.918-8.265l5.519 2.67a70.036 70.036 0 0 0 30.315 6.946H322.7a33.851 33.851 0 0 1 33.2 27.49l-38.795-1.755a232.313 232.313 0 0 0-42.22 1.951 6 6 0 0 0 1.646 11.886 219.979 219.979 0 0 1 40.031-1.848l45.656 2.065c.091 0 .182.006.272.006a6 6 0 0 0 6-6c0-.971-.041-1.933-.1-2.89l6.261-3.3 66.149-35.676a26.214 26.214 0 0 1 31.544 5.056z"/>
    <path d="M76.974 450.188a18.89 18.89 0 1 0 18.89-18.89 18.911 18.911 0 0 0-18.89 18.89zm18.89-6.89a6.89 6.89 0 1 1-6.89 6.89 6.9 6.9 0 0 1 6.89-6.888z"/>
    <path d="M301.622 90.305V70.533a45.544 45.544 0 0 0-91.087 0v19.772a45.544 45.544 0 0 0 91.087 0zm-79.087 0V70.533a33.544 33.544 0 0 1 67.087 0v19.772a33.544 33.544 0 0 1-67.087 0z"/>
    <path d="M182.668 259.425H329.49a6 6 0 0 0 6-6v-13.772H436a6 6 0 0 0 6-6v-38.944a44.973 44.973 0 0 0-42.108-44.856c-3.2-.235-4.845 1.791-6.179 3.418a27.535 27.535 0 0 1-43.442-1.061 6 6 0 0 0-4.975-2.433 44.48 44.48 0 0 0-22.071 6.439 50.437 50.437 0 0 0-35.2-17.459c-3.1-.126-4.668 1.756-6.187 3.6a32.308 32.308 0 0 1-50.977-1.245 5.982 5.982 0 0 0-4.975-2.432 50.215 50.215 0 0 0-34.845 15.2 50.536 50.536 0 0 0-2.178 2.393 44.612 44.612 0 0 0-20.457-6.422c-3.189-.235-4.846 1.791-6.179 3.418a27.534 27.534 0 0 1-43.441-1.061 6.015 6.015 0 0 0-4.975-2.433A44.955 44.955 0 0 0 70 194.709v38.944a6 6 0 0 0 6 6h100.668v13.772a6 6 0 0 0 6 6zm160.066-97.458a39.541 39.541 0 0 0 59.2.155A32.987 32.987 0 0 1 430 194.709v32.944h-94.51v-38.491a50.2 50.2 0 0 0-5.545-22.974 32.433 32.433 0 0 1 12.789-4.221zM223.3 150.862a44.315 44.315 0 0 0 66.934.159 38.54 38.54 0 0 1 33.26 38.141v58.263H188.668v-58.263a38.763 38.763 0 0 1 34.632-38.3zM82 227.653v-32.944a33.179 33.179 0 0 1 29.254-32.738 39.538 39.538 0 0 0 59.191.151 32.735 32.735 0 0 1 11.71 4.132 50.271 50.271 0 0 0-5.487 22.908v38.491z"/>
    <path d="M412.354 108.179V90.872a40.612 40.612 0 1 0-81.224 0v17.307a40.612 40.612 0 1 0 81.224 0zm-69.224 0V90.872a28.612 28.612 0 1 1 57.224 0v17.307a28.612 28.612 0 1 1-57.224 0z"/>
    <path d="M180.87 108.179V90.872a40.612 40.612 0 1 0-81.224 0v17.307a40.612 40.612 0 1 0 81.224 0zm-69.224 0V90.872a28.612 28.612 0 1 1 57.224 0v17.307a28.612 28.612 0 1 1-57.224 0z"/>
</symbol></svg>